<?xml version="1.0" encoding="utf-8"?>
<svg id="Layer_1" version="1.1" viewBox="0 0 1920 1080" xmlns="http://www.w3.org/2000/svg">
<!-- Generator: Adobe Illustrator 29.0.1, SVG Export Plug-In . SVG Version: 2.1.0 Build 192)  -->
<defs>
<style>
      .st0 {
        fill: #fff;
      }

      .st0, .st1 {
        stroke: #fff;
        stroke-linecap: round;
        stroke-linejoin: round;
        stroke-width: 3px;
      }

      .st1 {
        fill: none;
      }
    </style>
</defs>
<line class="st1" x1="1259.59" x2="1348.98" y1="836.99" y2="870.98"><animateTransform attrib="{'attributeName': 'transform', 'attributeType': 'XML', 'type': 'rotate', 'from': '0 0 0', 'to': '360 0 0', 'dur': '4s', 'repeatCount': 'indefinite'}" from="0 1304.2849999999999 853.985" to="360 1304.2849999999999 853.985"/></line>
<polyline class="st1" points="1150.44 439.24 1150.44 795.48 1165.82 801.33"/>
<line class="st1" x1="1348.66" x2="1348.66" y1="426.16" y2="585.11"/>
<line class="st1" x1="1233.1" x2="1233.1" y1="456.05" y2="471.63"/>
<line class="st1" x1="1317.44" x2="1317.44" y1="597.37" y2="596.53"/>
<line class="st1" x1="1275.94" x2="1275.94" y1="612.71" y2="612.32"/>
<line class="st1" x1="1238.81" x2="1238.81" y1="467.93" y2="625.87"/>
<path class="st1" d="M1251.73,325.84"/>
<polyline class="st1" points="1502.85 706.82 1502.85 745.56 1219.19 852.45"/>
<polygon class="st1" points="1262.37 293.33 1262.37 293.34 1242.44 300.92 1242.36 300.96 1230.64 296.5 1250.68 288.88 1262.37 293.33"/>
<line class="st1" x1="1503.74" x2="1457.61" y1="707.03" y2="689.26"/>
<path class="st0" d="M1317.44,514.94v81.59l-41.5,15.79v-81.6c0-13.36,8.26-25.34,20.75-30.09h0s0,0,0,0c10.02-3.81,20.75,3.59,20.75,14.31Z"/>
<path class="st0" d="M789.03,343.9v30.27l-15.39,5.86v-30.27c0-4.96,3.06-9.4,7.7-11.16h0s0,0,0,0c3.72-1.41,7.7,1.33,7.7,5.31Z"/>
<path class="st0" d="M789.03,443.2v30.27l-15.39,5.86v-30.27c0-4.96,3.06-9.4,7.7-11.16h0s0,0,0,0c3.72-1.41,7.7,1.33,7.7,5.31Z"/>
<path class="st0" d="M789.03,542.5v30.27l-15.39,5.86v-30.27c0-4.96,3.06-9.4,7.7-11.16h0s0,0,0,0c3.72-1.41,7.7,1.33,7.7,5.31Z"/>
<path class="st0" d="M1184.45,500.42v30.27s15.39,5.86,15.39,5.86v-30.27c0-4.96-3.06-9.4-7.7-11.16h0s0,0,0,0c-3.72-1.41-7.7,1.33-7.7,5.31Z"/>
<path class="st0" d="M1184.45,599.72v30.27s15.39,5.86,15.39,5.86v-30.27c0-4.96-3.06-9.4-7.7-11.16h0s0,0,0,0c-3.72-1.41-7.7,1.33-7.7,5.31Z"/>
<path class="st0" d="M1184.45,699.02v30.27s15.39,5.86,15.39,5.86v-30.27c0-4.96-3.06-9.4-7.7-11.16h0s0,0,0,0c-3.72-1.41-7.7,1.33-7.7,5.31Z"/>
<path class="st0" d="M1076.22,254.26v30.27l-15.39,5.86v-30.27c0-4.96,3.06-9.4,7.7-11.16h0s0,0,0,0c3.72-1.41,7.7,1.33,7.7,5.31Z"/>
<path class="st0" d="M1076.22,360.14v30.27l-15.39,5.86v-30.27c0-4.96,3.06-9.4,7.7-11.16h0s0,0,0,0c3.72-1.41,7.7,1.33,7.7,5.31Z"/>
<path class="st0" d="M1076.22,466.01v30.27l-15.39,5.86v-30.27c0-4.96,3.06-9.4,7.7-11.16h0s0,0,0,0c3.72-1.41,7.7,1.33,7.7,5.31Z"/>
<path class="st0" d="M1076.22,571.89v30.27l-15.39,5.86v-30.27c0-4.96,3.06-9.4,7.7-11.16h0s0,0,0,0c3.72-1.41,7.7,1.33,7.7,5.31Z"/>
<line class="st1" x1="1323.06" x2="1375.15" y1="382.33" y2="402.14"/>
<line class="st1" x1="1120.37" x2="1174.64" y1="413.83" y2="393.22"/>
<polygon class="st1" points="1375.15 402.32 1375.15 416.09 1374.87 416.2 1232.35 470.39 1231.31 470 1213.78 463.33 1120.37 427.8 1120.37 413.83 1232.16 456.34 1356.29 409.13 1374.67 402.14 1375.15 402.32"/>
<line class="st1" x1="824.89" x2="1028.37" y1="434.21" y2="356.83"/>
<line class="st1" x1="1028.38" x2="992.26" y1="446.32" y2="460.06"/>
<line class="st1" x1="866.85" x2="824.9" y1="507.75" y2="523.7"/>
<line class="st1" x1="1348.66" x2="1317.44" y1="585.11" y2="596.53"/>
<path class="st1" d="M1242.44,309.86v-8.87l-.08-.03-11.72-4.46-.08.03s.08,31.43.08,31.45c-20.49,6.26-37.69,22.29-46.34,42.58l-16.86,39.54-.44,1.03,71.26,27.1,92.51-35.18,2.26-.86-17.94-35.74c-12.13-24.17-36.47-39.69-63.36-40.61v-19.52l10.64-4.04v-8.94l-19.93,7.58v8.94"/>
<line class="st1" x1="1275.94" x2="1238.81" y1="612.32" y2="625.87"/>
<line class="st1" x1="1136.74" x2="1457.32" y1="812.52" y2="689.15"><animateTransform attrib="{'attributeName': 'transform', 'attributeType': 'XML', 'type': 'rotate', 'from': '0 0 0', 'to': '360 0 0', 'dur': '4s', 'repeatCount': 'indefinite'}" from="0 1297.03 750.835" to="360 1297.03 750.835"/></line>
<line class="st1" x1="1180.38" x2="1503.74" y1="829.07" y2="707.03"><animateTransform attrib="{'attributeName': 'transform', 'attributeType': 'XML', 'type': 'rotate', 'from': '0 0 0', 'to': '360 0 0', 'dur': '4s', 'repeatCount': 'indefinite'}" from="0 1342.06 768.05" to="360 1342.06 768.05"/></line>
<g>
<path class="st1" d="M1257.69,766.24s37.87,15.28,42.05,16.92c.12.05.18.07.18.07v38.33l-80.73,30.89v131.85l-38.81,14.76v-169.99"/>
<polyline class="st1" points="1180.38 829.07 1136.74 812.53 1136.74 812.52"/>
<polygon class="st1" points="1180.38 829.07 1180.38 999.06 1180.37 999.06 1136.74 982.47 1136.74 812.53 1180.38 829.07"/>
<line class="st1" x1="1180.38" x2="1180.38" y1="859.5" y2="829.07"><animateTransform attrib="{'attributeName': 'transform', 'attributeType': 'XML', 'type': 'rotate', 'from': '0 0 0', 'to': '360 0 0', 'dur': '4s', 'repeatCount': 'indefinite'}" from="0 1180.38 844.2850000000001" to="360 1180.38 844.2850000000001"/></line>
<polygon class="st0" points="1256.7 787.12 1256.7 791.71 1250.75 789.45 1240.04 785.37 1240.04 780.79 1246.06 783.08 1256.7 787.12"/>
<polygon class="st1" points="1274.71 780.33 1268.69 782.62 1256.78 787.16 1256.7 787.12 1246.06 783.08 1240.04 780.79 1251.95 776.26 1251.95 776.26 1257.97 773.97 1257.98 773.97 1264 776.26 1274.71 780.33"/>
<polygon class="st0" points="1274.71 780.33 1274.71 784.92 1262.8 789.45 1262.8 789.45 1256.78 791.74 1256.77 791.74 1256.7 791.71 1256.7 787.18 1256.78 787.16 1268.69 782.62 1274.71 780.33"/>
</g>
<polygon class="st1" points="1442.75 658.14 1427.03 664.12 1351.32 692.63 1333.36 699.46 1332.94 699.62 1317.66 693.81 1317.66 693.06 1335.06 686.44 1426.49 651.95 1427.03 652.16 1442.14 657.9 1442.75 658.14"/>
<polygon class="st1" points="1458.44 676.18 1442.73 682.16 1367.02 710.67 1349.06 717.5 1348.98 717.53 1348.64 717.66 1333.36 711.85 1333.36 711.74 1349.06 705.78 1349.1 705.76 1399.56 686.87 1399.69 686.92 1442.82 670.51 1442.82 670.23 1457.84 675.94 1458.13 676.05 1458.44 676.18"/>
<polygon class="st1" points="1442.82 658.17 1442.82 670.51 1399.69 686.92 1399.56 686.87 1349.1 705.76 1349.06 705.78 1333.36 711.74 1333.36 699.46 1351.32 692.63 1427.03 664.12 1442.75 658.14 1442.82 658.17"/>
<polyline class="st1" points="1458.44 762.29 1458.44 829.18 1348.98 870.98 1348.98 803.66"/>
<polyline class="st1" points="1348.98 730.96 1348.98 717.53 1349.06 717.5 1367.02 710.67 1442.73 682.16 1458.44 676.18 1458.44 689.26"/>
<polygon class="st1" points="1427.03 639.35 1427.03 651.75 1426.49 651.95 1335.06 686.44 1317.66 693.06 1317.66 680.66 1318.76 680.24 1410.19 645.75 1427.03 639.35"/>
<polyline class="st1" points="1317.44 680.52 1317.1 680.65 1301.82 674.84 1301.82 662.77 1301.4 662.61 1286.12 656.8 1286.12 643.65"/>
<polygon class="st1" points="1411.21 621.13 1301.82 662.45 1301.4 662.61 1286.12 656.8 1394.95 614.94 1411.21 621.13"/>
<polygon class="st1" points="1426.9 639.17 1317.44 680.52 1317.1 680.65 1301.82 674.84 1301.82 674.73 1411.28 633.5 1411.28 633.22 1426.3 638.93 1426.59 639.04 1426.9 639.17"/>
<polygon class="st1" points="1411.28 621.16 1411.28 633.5 1301.82 674.73 1301.82 662.45 1411.21 621.13 1411.28 621.16"/>
<polygon class="st1" points="1395.49 602.34 1395.49 614.74 1286.12 656.05 1286.12 643.65 1395.49 602.34"/>
<line class="st1" x1="1396.85" x2="1348.66" y1="602.34" y2="585.11"/>
<line class="st1" x1="1028.87" x2="939.08" y1="357.36" y2="322.49"/>
<line class="st1" x1="1287.12" x2="1238.81" y1="644.39" y2="625.87"/>
<path class="st1" d="M1237.57,438.8l-1.23-59.81c-.18-8.71-2.14-32.59,6.1-49.85,0-.53,0-19.28,0-19.28"/>
<polyline class="st1" points="1101.09 204.82 1101.09 635.8 1028.38 663.7"/>
<path class="st1" d="M939.08,194.13s0,113.69,0,128.36c0,0-113.51,43.17-113.51,43.17"/>
<path class="st1" d="M1028.87,228.27v435.43c-.73-.29-1.26-.49-1.26-.49,0,0-3.59-1.39-9.33-3.62"/>
<path class="st1" d="M939.08,438.68v190.15c6.63,2.57,38.1,14.8,61.65,23.94"/>
<line class="st1" x1="1033.53" x2="1033.53" y1="218.56" y2="231.29"/>
<path class="st0" d="M964.6,265.8v66.69s33.92,12.91,33.92,12.91v-66.7c0-10.92-6.75-20.71-16.96-24.59h0s0,0,0,0c-8.19-3.11-16.96,2.93-16.96,11.7Z"/>
<line class="st1" x1="960" x2="917.43" y1="158.3" y2="174.5"/>
<line class="st1" x1="1125.68" x2="1081.32" y1="184.05" y2="167.2"/>
<polygon class="st1" points="917.43 174.64 917.43 185.9 917.66 185.99 1034.15 230.28 1035 229.96 1049.33 224.51 1125.68 195.47 1125.68 184.05 1034.3 218.8 932.85 180.21 917.82 174.5 917.43 174.64"/>
<path class="st1" d="M1025.9,99.07v-7.31s-16.29-6.2-16.29-6.2v7.31s8.7,3.3,8.7,3.3v15.95c-21.98.75-41.87,13.44-51.79,33.19l-14.66,29.21,1.84.7,75.62,28.76,58.24-22.15-.36-.84-13.78-32.32c-7.07-16.59-21.13-29.69-37.88-34.81,0-.01.07-25.7.07-25.7l-.07-.02-9.58,3.65-.07.02v7.25"/>
<path class="st1" d="M1025.9,99.07s0,15.33,0,15.76c6.73,14.11,5.14,33.62,4.99,40.75l-1.01,48.89"/>
<path class="st1" d="M825.57,282.18v329.43s-39,14.96-65.75,25.22"/>
<path class="st1" d="M742.26,643.56c-3.21,1.24-5.49,2.11-6.48,2.49-5.35-2.1-72.23-28.35-72.23-28.35v-324.83"/>
<line class="st1" x1="731.11" x2="731.11" y1="306.61" y2="319.34"/>
<line class="st1" x1="735.77" x2="735.77" y1="316.32" y2="646.27"/>
<path class="st1" d="M746.33,200.18"/>
<polygon class="st1" points="755.03 173.61 755.03 173.62 738.74 179.81 738.68 179.85 729.1 176.2 745.48 169.97 755.03 173.61"/>
<line class="st1" x1="804.64" x2="847.21" y1="246.35" y2="262.54"/>
<line class="st1" x1="638.96" x2="683.32" y1="272.1" y2="255.25"/>
<polygon class="st1" points="847.21 262.69 847.21 273.95 846.98 274.04 730.49 318.33 729.64 318.01 715.31 312.56 638.96 283.52 638.96 272.1 730.34 306.85 831.79 268.26 846.82 262.54 847.21 262.69"/>
<path class="st1" d="M738.74,187.12v-7.25s-.07-.02-.07-.02l-9.58-3.65-.07.02s.07,25.69.07,25.7c-16.75,5.12-30.81,18.22-37.88,34.81l-13.78,32.32-.36.84,58.24,22.15,75.62-28.76,1.84-.7-14.66-29.21c-9.91-19.76-29.81-32.44-51.79-33.19v-15.95s8.7-3.3,8.7-3.3v-7.31s-16.29,6.2-16.29,6.2v7.31"/>
<path class="st1" d="M734.76,292.51l-1.01-48.89c-.15-7.12-1.75-26.64,4.99-40.75,0-.43,0-15.76,0-15.76"/>
<path class="st1" d="M866.85,507.75c-5.28-49.67,18.12-72.51,45.53-82.94,44.96-18.13,79.88,3.56,79.88,35.25v.14c-5.33-2.12-66.33-26.42-66.33-26.42,0-4.5-.71-8.81-2.04-12.82"/>
<g>
<polygon class="st1" points="742.26 661.51 742.26 668.23 741.01 667.75 738.68 666.84 738.66 666.84 651.28 632.91 651.03 632.81 642.47 629.47 642.47 629.34 651.03 626.08 651.28 626.18 742.26 661.51"/>
<polygon class="st1" points="741.01 667.75 740.78 667.84 740.77 667.84 731.69 671.37 651.03 639.87 642.47 636.54 642.47 629.47 651.03 632.81 651.28 632.91 738.66 666.84 738.68 666.84 741.01 667.75"/>
<polygon class="st1" points="857.13 712.83 857.13 719.89 847.93 716.32 749.07 677.94 749.07 671.68 749.87 671.37 750.11 671.28 751.04 671.64 751.62 671.87 857.13 712.83"/>
<path class="st1" d="M751.05,640.19v30.72l-.94.37-2.35-.91-5.5-2.14v-24.67c2.44-.93,5.43-2.07,8.79-3.37Z"/>
<polygon class="st1" points="864.49 708.98 864.49 710.04 857.13 712.83 751.62 671.87 751.04 671.64 750.11 671.28 751.04 670.92 753.15 670.09 757.85 668.26 758.43 668.04 759.81 668.56 760.06 668.66 766.63 671.15 767.18 671.35 767.39 671.27 864.49 708.98"/>
<polygon class="st1" points="864.49 710.04 864.49 717.16 857.22 719.93 857.13 719.89 857.13 712.83 864.49 710.04"/>
<polygon class="st1" points="749.07 671.68 749.07 678.39 658.09 713.72 657.84 713.82 657.84 707.09 658.09 707 740.78 674.89 746.96 672.49 749.07 671.68"/>
<polygon class="st1" points="750.11 671.28 749.87 671.37 749.07 671.68 746.96 672.49 740.78 674.89 658.09 707 657.84 707.09 655.74 706.17 655.74 706.11 649.38 703.32 657.84 700.04 731.69 671.37 740.77 667.84 740.78 667.84 741.01 667.75 742.26 668.23 747.76 670.37 750.11 671.28"/>
<path class="st1" d="M759.82,636.83v30.67l-1.39.53-.57.23-4.71,1.83-2.1.82v-30.72c2.7-1.03,5.65-2.16,8.77-3.36Z"/>
<polygon class="st1" points="851.34 631.65 759.81 667.5 759.81 660.4 761.92 659.58 834.43 631.11 843.63 627.54 851.34 631.65"/>
<polygon class="st1" points="851.36 631.64 850.99 637.39 850.99 638.45 767.39 671.27 767.18 671.35 766.63 671.15 760.06 668.66 759.81 668.56 759.81 667.5 851.34 631.65 851.36 631.64"/>
<polygon class="st1" points="657.84 707.09 657.84 713.82 649.28 710.47 649.28 703.41 649.37 703.37 651.49 704.31 657.84 707.09"/>
</g>
<g>
<polygon class="st1" points="1000.67 681.55 1000.67 688.27 999.42 687.79 997.08 686.87 997.07 686.87 909.69 652.94 909.44 652.84 900.88 649.51 900.88 649.37 909.44 646.11 909.69 646.21 1000.67 681.55"/>
<polygon class="st1" points="999.42 687.78 999.19 687.87 999.18 687.87 990.1 691.4 909.44 659.91 900.88 656.58 900.88 649.5 909.44 652.84 909.69 652.94 997.07 686.87 997.09 686.87 999.42 687.78"/>
<polygon class="st1" points="1115.54 732.87 1115.54 739.93 1106.34 736.36 1007.48 697.98 1007.48 691.71 1008.28 691.4 1008.51 691.31 1009.45 691.68 1010.02 691.9 1115.54 732.87"/>
<path class="st1" d="M1009.45,656.46v34.49l-.94.36-2.34-.91-5.5-2.14v-35.21c3.09,1.2,6.04,2.34,8.78,3.41Z"/>
<polygon class="st1" points="1122.9 729.01 1122.9 730.08 1115.54 732.86 1010.02 691.9 1009.45 691.67 1008.51 691.32 1009.45 690.95 1011.56 690.12 1016.26 688.3 1016.84 688.07 1018.22 688.59 1018.47 688.69 1025.03 691.18 1025.58 691.39 1025.8 691.31 1122.9 729.01"/>
<polygon class="st1" points="1122.9 730.07 1122.9 737.2 1115.63 739.97 1115.54 739.93 1115.54 732.87 1122.9 730.07"/>
<polygon class="st1" points="1007.48 691.71 1007.48 698.43 916.5 733.75 916.25 733.85 916.25 727.13 916.5 727.04 999.19 694.92 1005.37 692.52 1007.48 691.71"/>
<polygon class="st1" points="1008.51 691.32 1008.28 691.4 1007.48 691.71 1005.37 692.53 999.19 694.92 916.5 727.04 916.25 727.12 914.14 726.2 914.14 726.14 907.79 723.35 916.25 720.08 990.1 691.4 999.18 687.87 999.19 687.87 999.42 687.79 1000.67 688.27 1006.17 690.4 1008.51 691.32"/>
<path class="st1" d="M1018.22,659.87v27.66l-1.38.53-.58.23-4.7,1.83-2.11.83v-34.49c3.26,1.27,6.23,2.42,8.77,3.41Z"/>
<polygon class="st1" points="1109.75 651.68 1018.22 687.54 1018.22 680.43 1020.33 679.6 1092.84 651.15 1102.04 647.58 1109.75 651.68"/>
<polygon class="st1" points="1109.77 651.67 1109.4 657.42 1109.4 658.48 1025.8 691.3 1025.58 691.39 1025.04 691.19 1018.47 688.69 1018.22 688.59 1018.22 687.53 1109.75 651.68 1109.77 651.67"/>
<polygon class="st1" points="916.25 727.13 916.25 733.85 907.69 730.51 907.69 723.44 907.78 723.41 909.9 724.34 916.25 727.13"/>
</g>
<polygon class="st1" points="1009.59 85.58 1009.59 85.59 1025.88 91.78 1025.94 91.82 1035.52 88.17 1019.14 81.94 1009.59 85.58"/>
<path class="st1" d="M1335.95,258.66s-4.41-45.9-44.43-26.44c0,0-.37-41.12-30.48-41.12s-35.25,32.31-35.25,32.31c0,0-41.86-5.05-41.86,35.34l152.02-.09Z"/>
<g>
<path class="st1" d="M543.94,513.48h-127.68s8.02-33.59,29.77-12.07c0,0,4.58-35.68,41.22-16.79,0,0,8.94-25.89,35.13-18.76,26.39,7.19,21.55,47.62,21.55,47.62Z"/>
<path class="st1" d="M524.17,541.69h183.74s-1.69-65.74-57.31-36.24c0,0-8.79-28.21-27.81-37.09-37.93-17.7-98.61,1.69-98.61,73.33Z"/>
</g>
<g>
<path class="st1" d="M962.76,782.13h55.96s-3.51-14.72-13.05-5.29c0,0-2.01-15.64-18.07-7.36,0,0-3.92-11.35-15.4-8.22-11.57,3.15-9.45,20.87-9.45,20.87Z"/>
<path class="st1" d="M1013.31,811.79s0-24.53,21.42-15.55c0,0,16.93-31.42,46.26-9.33,0,0,29.57-11.75,27.32,24.88h-95.01Z"/>
</g>
<path class="st1" d="M866.22,136.7s-34.21-28.38-65.1,1.05c0,0-17.46-26.32-33.69-12.86-5.6-7.82-14.95-12.76-30.47-5.52,0,0-1.83-31.42-35.4-31.37-31.41.04-33.02,40.18-33.02,40.18,0,0-18.15,0-13.75,21.46h238.41s-6.6-30-26.97-12.94Z"/>
</svg>